<svg width="30" height="34" viewBox="0 0 30 34" fill="none" xmlns="http://www.w3.org/2000/svg">
    <path
        d="M21.2858 5.70289C19.5749 4.26268 17.8069 2.77442 16.019 1.00348L15.001 0L14.003 1.0049C10.7893 4.20191 9.26946 9.11191 8.61076 12.0573C8.1053 11.2815 7.7302 10.4295 7.50009 9.5345L6.89129 7.22084L5.13333 8.85609C2.05511 11.7224 0.000593402 14.5646 0.000593402 19.1156C-0.0290037 22.3996 1.04932 25.5992 3.06425 28.2061C8.61412 35.3863 20.047 35.7372 26.1139 29.1075C28.6167 26.3724 30.0022 22.8112 30 19.1185C30 13.0382 25.9608 9.63909 21.2858 5.70289Z"
        fill="url(#paint0_linear_102_6)"
    />
    <defs>
        <linearGradient
            id="paint0_linear_102_6"
            x1="15"
            y1="0"
            x2="15"
            y2="33.8462"
            gradientUnits="userSpaceOnUse"
        >
            <stop stop-color="#EC9F05" />
            <stop offset="1" stop-color="#E73827" />
        </linearGradient>
    </defs>
</svg>
